<svg width="412" height="412" viewBox="0 0 412 412" fill="none" xmlns="http://www.w3.org/2000/svg">
<path d="M46.8477 308.7H32.4315L190.383 103.3H204.799L46.8477 308.7Z" fill="black"/>
<path d="M20.9724 308.7H6.60641L164.007 103.3H178.373L20.9724 308.7Z" fill="black"/>
<path d="M73.2222 308.7H58.8571L216.259 103.3H230.624L73.2222 308.7Z" fill="black"/>
<path d="M90.7133 178.974L97.895 169.666L46.7722 103.3H32.4315L90.7133 178.974Z" fill="black"/>
<path d="M103.956 162.157L111.108 152.822L73.1619 103.3H58.8571L103.956 162.157Z" fill="black"/>
<path d="M78.1004 196.391L85.2828 187.04L20.9711 103.3H6.60641L78.1004 196.391Z" fill="black"/>
<path d="M190.466 308.7H204.799L146.502 232.426L139.335 241.812L190.466 308.7Z" fill="black"/>
<path d="M216.377 308.7H230.624L159.672 215.009L152.548 224.415L216.377 308.7Z" fill="black"/>
<path d="M163.913 308.7H178.373L132.763 249.242L125.522 258.664L163.913 308.7Z" fill="black"/>
<path d="M250.176 271.464H260.365L272.064 308.7H263.051L258.198 289.847C257.253 286.134 256.112 281.769 255.202 277.839H254.925C254.015 281.769 252.966 286.134 252.009 289.847L247.134 308.7H238.432L250.176 271.464ZM246.223 293.275H264.146V299.845H246.223V293.275Z" fill="black"/>
<path d="M276.268 271.464H284.809L292.526 289.973L295.678 298.154H295.915C295.542 294.235 294.785 289.013 294.785 284.626V271.464H302.694V308.7H294.153L286.402 290.144L283.25 282.009H283.058C283.431 286.123 284.188 291.15 284.188 295.492V308.7H276.279L276.268 271.464Z" fill="black"/>
<path d="M318.433 271.464H328.44L339.93 308.7H331.078L326.312 289.847C325.384 286.134 324.263 281.769 323.369 277.839H323.097C322.203 281.769 321.173 286.134 320.233 289.847L315.445 308.7H306.898L318.433 271.464ZM314.55 293.275H332.153V299.845H314.55V293.275Z" fill="black"/>
<path d="M344.735 271.464H355.032C365.857 271.464 372.962 277.119 372.962 289.916C372.962 302.713 365.857 308.7 355.513 308.7H344.735V271.464ZM354.563 301.913C360.364 301.913 364.312 298.817 364.312 289.916C364.312 281.015 360.364 278.25 354.563 278.25H353.179V301.913H354.563Z" fill="black"/>
<path d="M378.367 294.337V271.509H386.823V295.238C386.823 299.69 388.471 302.087 391.983 302.087C395.496 302.087 397.247 299.656 397.247 295.238V271.464H405.394V294.291C405.394 303.959 401.034 309.3 391.983 309.3C382.933 309.3 378.367 304.004 378.367 294.337Z" fill="black"/>
</svg>
