<svg id="Graphic_Elements" data-name="Graphic Elements" xmlns="http://www.w3.org/2000/svg" viewBox="0 0 600 600"><defs><style>.cls-1{font-size:60px;font-family:BerlinSansFBDemi-Bold, Berlin Sans FB Demi;font-weight:700;}</style></defs><title>v914-ning-01 [Converted]</title><polygon points="138.44 390.29 125.8 390.29 264.29 209.71 276.93 209.71 138.44 390.29"/><polygon points="115.37 390.29 102.73 390.29 241.22 209.71 253.86 209.71 115.37 390.29"/><polygon points="161.5 390.29 148.86 390.29 287.36 209.71 300 209.71 161.5 390.29"/><polygon points="177.17 276.7 183.5 268.46 138.44 209.71 125.8 209.71 177.17 276.7"/><polygon points="188.71 261.66 195.03 253.42 161.5 209.71 148.86 209.71 188.71 261.66"/><polygon points="165.64 291.74 171.96 283.5 115.37 209.71 102.73 209.71 165.64 291.74"/><polygon points="264.29 390.29 276.93 390.29 225.52 323.25 219.2 331.5 264.29 390.29"/><polygon points="287.36 390.29 300 390.29 237.05 308.22 230.73 316.46 287.36 390.29"/><polygon points="241.22 390.29 253.86 390.29 213.99 338.29 207.66 346.53 241.22 390.29"/><path d="M316.88,357.7h8.84l10.15,32.59h-7.82l-4.21-16.5c-.82-3.25-1.81-7.07-2.6-10.51H321c-.79,3.44-1.7,7.26-2.53,10.51l-4.23,16.5h-7.55Zm-3.43,19.09H329v5.75H313.45Z"/><path d="M339.61,357.7h7.56L354,373.9l2.79,7.16H357c-.33-3.43-1-8-1-11.84V357.7h7v32.59h-7.56l-6.86-16.24-2.79-7.12h-.17c.33,3.6,1,8,1,11.8v11.56h-7Z"/><path d="M376.88,357.7h8.84l10.15,32.59h-7.82l-4.21-16.5c-.82-3.25-1.81-7.07-2.6-10.51H381c-.79,3.44-1.7,7.26-2.53,10.51l-4.23,16.5h-7.55Zm-3.43,19.09H389v5.75H373.45Z"/><path d="M399.82,357.7h9c9.46,0,15.67,4.95,15.67,16.15s-6.21,16.44-15.25,16.44h-9.42Zm8.59,26.65c5.07,0,8.52-2.71,8.52-10.5s-3.45-10.21-8.52-10.21H407.2v20.71Z"/><path d="M429.49,377.74v-20h7.39v20.79c0,3.9,1.44,6,4.51,6s4.6-2.13,4.6-6V357.7h7.12v20c0,8.47-3.81,13.15-11.72,13.15S429.49,386.21,429.49,377.74Z"/><text class="cls-1" transform="translate(102.73 424.14)"></text></svg>